<?xml version="1.0" encoding="UTF-8" standalone="no"?>
<!DOCTYPE svg PUBLIC "-//W3C//DTD SVG 1.1//EN" "http://www.w3.org/Graphics/SVG/1.1/DTD/svg11.dtd">
<svg version="1.1" xmlns="http://www.w3.org/2000/svg" xmlns:xlink="http://www.w3.org/1999/xlink" preserveAspectRatio="xMidYMid meet" viewBox="0 0 96 96" width="96" height="96"><defs><path d="M93.08 48.08C93.08 72.92 72.92 93.08 48.08 93.08C23.25 93.08 3.08 72.92 3.08 48.08C3.08 23.25 23.25 3.08 48.08 3.08C72.92 3.08 93.08 23.25 93.08 48.08Z" id="e5H9BbjrJt"></path><clipPath id="clipa14iRYOQpC"><use xlink:href="#e5H9BbjrJt" opacity="1"></use></clipPath><path d="M48.04 48.92L73.04 32.25L73.04 57.25L48.04 73.91L23.04 57.25L23.04 32.25L48.04 48.92Z" id="b5lIyihM4J"></path><path d="M48.04 53.92L68.04 40.59L68.04 55.58L48.04 68.3L28.04 55.58L28.04 40.59L48.04 53.92Z" id="a6AjJENDPy"></path><path d="M48.04 58.28L63.04 48.92L63.04 53.92L48.04 63.63L33.04 53.92L33.04 48.67L48.04 58.28Z" id="j27K3XcmXS"></path></defs><g><g><g><use xlink:href="#e5H9BbjrJt" opacity="1" fill="#ffffff" fill-opacity="0.99"></use><g clip-path="url(#clipa14iRYOQpC)"></g><g></g></g><g><g><use xlink:href="#b5lIyihM4J" opacity="1" fill-opacity="0" stroke="#14571e" stroke-width="5" stroke-opacity="0.81"></use></g></g><g><g><use xlink:href="#a6AjJENDPy" opacity="1" fill-opacity="0" stroke="#6eb779" stroke-width="5" stroke-opacity="0.81"></use></g></g><g><g><use xlink:href="#j27K3XcmXS" opacity="1" fill-opacity="0" stroke="#c6e5cb" stroke-width="5" stroke-opacity="0.81"></use></g></g></g></g></svg>