<?xml version="1.0" encoding="UTF-8" standalone="no"?>
<!DOCTYPE svg PUBLIC "-//W3C//DTD SVG 1.1//EN" "http://www.w3.org/Graphics/SVG/1.1/DTD/svg11.dtd">
<svg version="1.1" xmlns="http://www.w3.org/2000/svg" xmlns:xlink="http://www.w3.org/1999/xlink" preserveAspectRatio="xMidYMid meet" viewBox="0 0 96 96" width="96" height="96"><defs><path d="M93.08 48.08C93.08 72.92 72.92 93.08 48.08 93.08C23.25 93.08 3.08 72.92 3.08 48.08C3.08 23.25 23.25 3.08 48.08 3.08C72.92 3.08 93.08 23.25 93.08 48.08Z" id="a18jHP347Y"></path><clipPath id="clipb1dW5gXfpV"><use xlink:href="#a18jHP347Y" opacity="1"></use></clipPath><path d="M48.29 46.55L23.29 63.21L23.29 38.22L48.29 21.55L73.29 38.22L73.29 63.21L48.29 46.55Z" id="aU8D6KM1R"></path><path d="M48.29 41.55L28.29 54.88L28.29 39.88L48.29 27.17L68.29 39.88L68.29 54.88L48.29 41.55Z" id="c9YMk3lsk"></path><path d="M48.29 37.18L33.29 46.55L33.29 41.55L48.29 31.84L63.29 41.55L63.29 46.8L48.29 37.18Z" id="aJhLSINwK"></path></defs><g><g><g><use xlink:href="#a18jHP347Y" opacity="1" fill="#ffffff" fill-opacity="0.99"></use><g clip-path="url(#clipb1dW5gXfpV)"></g><g></g></g><g><g><use xlink:href="#aU8D6KM1R" opacity="1" fill-opacity="0" stroke="#14571e" stroke-width="5" stroke-opacity="0.81"></use></g></g><g><g><use xlink:href="#c9YMk3lsk" opacity="1" fill-opacity="0" stroke="#6eb779" stroke-width="5" stroke-opacity="0.81"></use></g></g><g><g><use xlink:href="#aJhLSINwK" opacity="1" fill-opacity="0" stroke="#c6e5cb" stroke-width="5" stroke-opacity="0.81"></use></g></g></g></g></svg>